<svg width="25" height="25" viewBox="0 0 25 25" fill="none" xmlns="http://www.w3.org/2000/svg">
<g clip-path="url(#clip0_29_473)">
<path d="M15.9825 9.01767C15.8846 6.81819 14.1251 5.05866 11.9257 5.05866C10.6061 5.05866 9.48195 5.64516 8.74877 6.57381C8.06452 6.13393 7.28251 5.84067 6.45161 5.84067C4.15445 5.84067 2.34604 7.69796 2.34604 9.94622C2.34604 10.826 2.59042 11.608 3.0303 12.2923C2.10165 13.0255 1.56403 14.1496 1.56403 15.4203C1.56403 16.1535 1.71064 16.7889 2.0039 17.3754C0.782014 18.0597 0 19.3793 0 20.8944C0 23.1917 1.80841 25 4.10557 25C5.57185 25 6.94037 24.2179 7.62463 22.9961C8.21115 23.2894 8.84647 23.4359 9.57968 23.4359C10.8505 23.4359 11.9745 22.8983 12.7077 21.9698C13.392 22.4096 14.174 22.6539 15.0538 22.6539C17.3021 22.6539 19.1593 20.8456 19.1593 18.5484C19.1593 17.7176 18.8661 16.9355 18.4262 16.2513C19.3548 15.5181 19.9413 14.3451 19.9413 13.0743C19.9413 10.8749 18.1818 9.1154 15.9825 9.01767ZM4.10557 22.6539C3.12806 22.6539 2.34604 21.8719 2.34604 20.8944C2.34604 19.9659 3.12806 19.1349 4.10557 19.1349C5.03421 19.1349 5.86511 19.9659 5.86511 20.8944C5.86511 21.8719 5.03421 22.6539 4.10557 22.6539ZM5.6696 17.1798C4.69209 17.1798 3.91007 16.3978 3.91007 15.4203C3.91007 14.4918 4.69209 13.6608 5.6696 13.6608C6.59824 13.6608 7.42914 14.4918 7.42914 15.4203C7.42914 16.3978 6.59824 17.1798 5.6696 17.1798ZM6.45161 11.7057C5.4741 11.7057 4.69209 10.9237 4.69209 9.94622C4.69209 9.01767 5.4741 8.18672 6.45161 8.18672C7.38025 8.18672 8.21115 9.01767 8.21115 9.94622C8.21115 10.9237 7.38025 11.7057 6.45161 11.7057ZM9.57968 21.0899C8.60216 21.0899 7.82014 20.3079 7.82014 19.3304C7.82014 18.4018 8.60216 17.5709 9.57968 17.5709C10.5084 17.5709 11.3392 18.4018 11.3392 19.3304C11.3392 20.3079 10.5084 21.0899 9.57968 21.0899ZM10.7526 16.0069C9.77515 16.0069 8.99314 15.2248 8.99314 14.2474C8.99314 13.3187 9.77515 12.4877 10.7526 12.4877C11.6813 12.4877 12.5123 13.3187 12.5123 14.2474C12.5123 15.2248 11.6813 16.0069 10.7526 16.0069ZM11.9257 10.9237C10.9482 10.9237 10.1662 10.1417 10.1662 9.1642C10.1662 8.2356 10.9482 7.4047 11.9257 7.4047C12.8544 7.4047 13.6852 8.2356 13.6852 9.1642C13.6852 10.1417 12.8544 10.9237 11.9257 10.9237ZM15.0538 20.3079C14.0763 20.3079 13.2943 19.5259 13.2943 18.5484C13.2943 17.6198 14.0763 16.7889 15.0538 16.7889C15.9825 16.7889 16.8133 17.6198 16.8133 18.5484C16.8133 19.5259 15.9825 20.3079 15.0538 20.3079ZM15.8358 14.8338C14.8583 14.8338 14.0763 14.0518 14.0763 13.0743C14.0763 12.1457 14.8583 11.3148 15.8358 11.3148C16.7645 11.3148 17.5953 12.1457 17.5953 13.0743C17.5953 14.0518 16.7645 14.8338 15.8358 14.8338ZM24.7801 6.81819C23.1671 5.30304 21.0167 4.96091 19.1593 5.84067C20.0391 3.98339 19.6969 1.83285 18.1818 0.219944C17.8886 -0.0733147 17.3509 -0.0733147 17.0577 0.219944C15.1026 2.32161 15.1515 5.30304 17.2532 7.35582L17.6442 7.74683C19.6969 9.84848 22.6785 9.89742 24.7801 7.94234C25.0733 7.64908 25.0733 7.11144 24.7801 6.81819Z" fill="#990D23"/>
</g>
<defs>
<clipPath id="clip0_29_473">
<rect width="25" height="25" fill="white"/>
</clipPath>
</defs>
</svg>
