<svg width="25" height="25" viewBox="0 0 25 25" fill="none" xmlns="http://www.w3.org/2000/svg">
<g clip-path="url(#clip0_29_475)">
<path d="M16.5521 22.6562H13.3783V17.0898C16.5521 16.504 18.8471 13.623 18.4076 10.4004L17.0891 1.36718C16.9915 0.585933 16.3568 0 15.5755 0H8.88606C8.15362 0 7.47002 0.585933 7.37236 1.36718L6.054 10.4004C5.61455 13.623 7.90948 16.504 11.0345 17.0898V22.6562H7.95831C7.27471 22.6562 6.78643 23.1935 6.78643 23.8282C6.78643 24.5118 7.27471 25 7.95831 25H16.5521C17.1868 25 17.6751 24.5118 17.6751 23.8282C17.724 23.1935 17.1868 22.6562 16.5521 22.6562ZM14.8919 2.34376L15.4779 6.25002H8.9837L9.56968 2.34376H14.8919ZM8.34894 10.7422L8.6419 8.59371H15.8197L16.1126 10.6934C16.3079 12.2559 15.0872 14.8437 12.2552 14.8437C9.42315 14.8437 8.15362 12.2559 8.34894 10.7422Z" fill="#990D23"/>
</g>
<defs>
<clipPath id="clip0_29_475">
<rect width="25" height="25" fill="white"/>
</clipPath>
</defs>
</svg>
