<svg width="25" height="25" viewBox="0 0 25 25" fill="none" xmlns="http://www.w3.org/2000/svg">
<g clip-path="url(#clip0_29_477)">
<path d="M24.5129 0.487009C23.8637 -0.162336 22.8896 -0.162336 22.3052 0.487009L0.487009 22.3052C-0.162336 22.8896 -0.162336 23.8635 0.487009 24.4481C0.811682 24.7726 1.2013 24.9025 1.65585 24.9025C2.04545 24.9025 2.43506 24.7726 2.69481 24.4481L24.5129 2.62987C25.1624 2.04545 25.1624 1.07143 24.5129 0.487009ZM4.25325 7.24016C5.94156 7.24016 7.37013 5.87662 7.37013 4.12337C7.37013 2.43506 5.94156 1.00649 4.25325 1.00649C2.50001 1.00649 1.13637 2.43506 1.13637 4.12337C1.13637 5.87662 2.50001 7.24016 4.25325 7.24016ZM20.8767 17.6298C19.1233 17.6298 17.7598 19.0584 17.7598 20.7466C17.7598 22.5 19.1233 23.8635 20.8767 23.8635C22.5649 23.8635 23.9935 22.5 23.9935 20.7466C23.9935 19.0584 22.5649 17.6298 20.8767 17.6298Z" fill="#990D23"/>
</g>
<defs>
<clipPath id="clip0_29_477">
<rect width="25" height="25" fill="white"/>
</clipPath>
</defs>
</svg>
