<svg width="24" height="19" viewBox="0 0 24 19" fill="none" xmlns="http://www.w3.org/2000/svg">
<g clip-path="url(#clip0_28_33)">
<path d="M6.6 2.4H9V0.900001C9 0.412501 9.375 0 9.90005 0C10.3875 0 10.8 0.412501 10.8 0.900001V2.4H13.2V0.900001C13.2 0.412501 13.575 0 14.1 0C14.5875 0 15 0.412501 15 0.900001V2.4H17.4V0.900001C17.4 0.412501 17.775 0 18.3001 0C18.7875 0 19.2 0.412501 19.2 0.900001V8.40001H22.2V6.9C22.2 6.41251 22.575 6 23.1001 6C23.5875 6 24 6.41251 24 6.9V16.5C24 18 22.7626 19.2 21.3001 19.2H2.7C1.2 19.2 0 18 0 16.5V6.9C0 6.41251 0.374999 6 0.900001 6C1.3875 6 1.8 6.41251 1.8 6.9V8.40001H4.8V0.900001C4.8 0.412501 5.175 0 5.7 0C6.1875 0 6.6 0.412501 6.6 0.900001V2.4ZM6.6 4.2V8.40001H17.4V4.2H6.6ZM1.8 10.2V16.5C1.8 17.025 2.175 17.4 2.7 17.4H9.6V14.4C9.6 13.0875 10.65 12 12 12C13.3125 12 14.4 13.0875 14.4 14.4V17.4H21.3001C21.7875 17.4 22.2 17.025 22.2 16.5V10.2H1.8Z" fill="#990D23"/>
</g>
<defs>
<clipPath id="clip0_28_33">
<rect width="24" height="19" fill="white"/>
</clipPath>
</defs>
</svg>
